<svg version="1.2" xmlns="http://www.w3.org/2000/svg"><path d="M76.6 4.3c0-.4-.3-.6-.6-.6-.4 0-.6.3-.6.6 0 .4.3.6.6.6s.6-.3.6-.6z"/><path d="M79.3 0c-6.1 0-10.8 4.9-10.8 10.8 0 3.7 1.7 6.8 4.5 8.8l2.8-2.8V5.9c0-.4-.1-.5-.4-.6-.4-.2-.6-.6-.6-1 0-.6.6-1.1 1.1-1.1.6 0 1.2.6 1.2 1.2 0 .5-.3.8-.6 1-.2 0-.4.2-.4.5V17l-2.9 2.9c1.7 1.1 3.8 1.7 5.9 1.7 6.1 0 10.8-4.9 10.8-10.8C90.1 4.9 85.2 0 79.3 0zm-4.1 6.8v8.9h-.6V6.8h.6zm2 9h-.6v-9h.6v9zm6.6 0c-.4.2-.8.2-1.3.2-.6 0-1.1-.1-1.5-.3-.4-.2-.7-.4-.9-.7-.2-.4-.5-.7-.6-1.1-.1-.5-.2-1-.2-1.6v-8l1.6-.3v2.8h3.4v1.4h-3.4v4.1c0 .5.1.8.1 1.1.1.3.2.6.4.7.2.2.4.3.6.4.2.1.5.1.7.1.5 0 .8-.1 1.2-.2.3-.1.6-.2.6-.3l.4 1.3c-.3.1-.6.2-1.1.4z"/><path d="M5.8 10.6c0-1.1-.2-1.8-.4-2.3-.3-.5-.7-.7-1.5-.7-.3 0-.6 0-.8.1h-.7V16H0V6.2c.5-.2 1-.3 1.7-.4.8-.1 1.5-.2 2.3-.2.7 0 1.3.1 1.7.3.5.2.8.5 1.1.7.2-.2.5-.3.6-.4.4 0 .6-.2.9-.3.3-.1.6-.2.9-.2.3-.1.6-.1.9-.1.8 0 1.5.1 2 .4.6.3.9.6 1.2.9.3.5.5.9.6 1.5.1.6.2 1.2.2 1.9v5.8h-2.4v-5.3c0-1.1-.2-1.8-.4-2.3-.1-.5-.6-.8-1.4-.8-.4 0-.7.1-1.1.2s-.7.1-.8.2c.1.4.2.6.2 1.1.1.4.1.7.1 1.1V16H5.9l-.1-5.4zm8.7.3c0-.9.2-1.7.4-2.4.3-.6.6-1.2 1.1-1.7.5-.5.9-.8 1.5-1 .6-.3 1.2-.4 1.7-.4 1.4 0 2.5.5 3.3 1.3.8.8 1.2 2.2 1.2 3.9v.5c0 .2 0 .4-.1.5h-6.7c.1.8.4 1.5.8 1.9.6.5 1.3.6 2.2.6.6 0 1.1-.1 1.6-.2s.8-.3 1.1-.4l.4 1.9c-.2.1-.4.2-.6.2-.3.1-.5.2-.8.2-.3.1-.6.1-.9.2-.4.1-.6.1-1 .1-.9 0-1.7-.2-2.4-.4-.6-.3-1.2-.6-1.7-1.1-.5-.5-.7-1-.9-1.7 0-.6-.2-1.2-.2-2zm6.8-1.1c0-.4-.1-.6-.2-.9-.1-.3-.3-.6-.4-.7-.2-.3-.4-.4-.6-.6-.3-.2-.6-.2-.9-.2-.4 0-.6.1-.9.2-.3.2-.6.4-.8.6-.2.3-.4.5-.5.7l-.3.9h4.6zm11.8 5.1c0 1.6-.5 2.8-1.2 3.6-.8.7-2.1 1.1-3.8 1.1-.6 0-1.2-.1-1.8-.2-.6-.1-1.1-.3-1.6-.5l.5-2c.5.2.8.3 1.4.5.6.1 1.1.2 1.7.2.9 0 1.6-.2 2-.6s.6-1 .6-1.7v-.4c-.3.2-.6.3-.9.4-.4.1-.8.2-1.3.2-.6 0-1.2-.1-1.7-.4-.6-.2-1-.6-1.4-.9-.4-.5-.6-.9-.9-1.5-.3-.6-.4-1.3-.4-2.1s.1-1.4.4-2 .6-1.2 1-1.6c.5-.5.9-.8 1.6-1 .6-.3 1.3-.4 2.1-.4.7 0 1.5.1 2.2.2.7.1 1.3.3 1.7.4l-.2 8.7zm-6.7-4.3c0 1 .3 1.7.6 2.2.5.5 1 .7 1.7.7.4 0 .7-.1 1.1-.2.4-.1.6-.3.8-.4V7.7c-.2-.1-.4-.1-.6-.1-.3-.1-.6-.1-.9-.1-.8 0-1.5.3-2 .8-.4.6-.7 1.3-.7 2.3zm11.3-5.1c.8 0 1.4.1 2 .3.5.2.9.4 1.3.8s.6.7.6 1.3c.2.6.2 1 .2 1.7v6.2c-.4.1-.9.2-1.7.3s-1.6.2-2.5.2c-.6 0-1.2-.1-1.7-.2-.6-.1-.9-.3-1.3-.6s-.6-.6-.8-1c-.2-.5-.3-.9-.3-1.6 0-.6.1-1.1.4-1.5.3-.5.6-.7.9-1 .4-.3.8-.5 1.4-.6.6-.1 1-.2 1.6-.2.3 0 .6 0 .8.1.3.1.6.1.9.2v-.3c0-.3-.1-.6-.1-.8-.1-.3-.2-.5-.4-.6-.2-.2-.4-.4-.6-.5-.3-.1-.6-.2-1-.2-.6 0-1 .1-1.5.1-.5.1-.8.2-1.1.3L34.5 6c.3-.1.7-.2 1.3-.4.7 0 1.2-.1 1.9-.1zm.2 8.7c.7 0 1.3-.1 1.7-.1v-2.6c-.2-.1-.4-.1-.6-.1-.3-.1-.6-.1-.8-.1s-.6 0-.8.1c-.3.1-.6.1-.7.3-.3.1-.4.3-.6.5-.2.2-.2.5-.2.7 0 .6.2.9.6 1.2.3 0 .8.1 1.4.1z"/><path d="M48.9 10.6c0-1.1-.2-1.8-.4-2.3-.3-.5-.7-.7-1.5-.7-.3 0-.6 0-.8.1-.4.1-.6.1-.7.1V16h-2.4V6.2c.5-.2 1-.3 1.7-.4.7-.1 1.5-.2 2.3-.2.7 0 1.3.1 1.7.3.5.2.8.5 1.1.7.2-.1.4-.3.6-.4.2-.1.5-.3.7-.4s.6-.2.8-.3c.3-.1.6-.1.9-.1.8 0 1.5.1 2 .4.6.3.9.6 1.2.9.3.5.5.9.6 1.5.1.6.2 1.2.2 1.9V16h-2.4v-5.3c0-1.1-.2-1.8-.4-2.3-.3-.5-.7-.7-1.5-.7-.4 0-.7.1-1.1.2-.4.2-.6.3-.7.4.1.4.2.6.3 1 .1.4.1.7.1 1.2v5.7H49v-5.3h-.1v-.3zm12-7.5c0 .5-.2.8-.5 1-.3.4-.6.5-1 .5-.5 0-.7-.2-1-.4-.3-.3-.5-.6-.5-1 0-.5.2-.8.5-1.1.3-.3.6-.4 1-.4s.7.2 1 .4c.3.3.5.6.5 1zm-2.7 2.7h2.4V16h-2.4V5.8zm9.2 2c-.2-.1-.3-.1-.6-.2-.4-.1-.7-.1-1.2-.1-.3 0-.6.1-.8.1-.3.1-.6.1-.6.2V16h-2.4V6.2c.5-.2 1-.4 1.7-.5.6-.2 1.5-.3 2.3-.3.2 0 .4 0 .6.1.2 0 .5.1.6.1.2.1.5.1.6.1.1.2.3.2.4.3l-.6 1.8z"/></svg>