<?xml version="1.0" encoding="utf-8"?>
<!-- Generator: Adobe Illustrator 17.1.0, SVG Export Plug-In . SVG Version: 6.00 Build 0)  -->
<svg version="1.2" baseProfile="tiny" id="Capa_1" xmlns="http://www.w3.org/2000/svg" xmlns:xlink="http://www.w3.org/1999/xlink"
	 x="0px" y="0px" viewBox="0 0 100 94" xml:space="preserve">
<path fill="#B98DFF" d="M99.4,57.1L81.7,90.5c-0.9,1.7-3.3,3.4-5.2,3.4H5.6c-1.5,0-2.9-0.6-4-1.6c-1.1-1.1-1.6-2.5-1.6-4v-55
	c0-3.1,2.5-5.6,5.6-5.6h5.2v4.8H7.3c-0.7,0-1.3,0.3-1.8,0.8S4.8,34.3,4.8,35v51.6c0,1.4,1.1,2.6,2.6,2.6h3.6l16.7-33.9
	c0.9-1.9,2.7-3.4,4.6-3.4h41l0-13.6c2.7,0.3,4.8,2.5,4.8,5.2v8.4h18.8C99.1,51.9,101,54.1,99.4,57.1z M14.1,72.1
	c-0.2-16.9,0-67.4,0-67.4c0-2.6,2.1-4.6,4.6-4.6h37c0.6,0,1.2,0.3,1.6,0.7l12,13c0.4,0.4,0.6,0.9,0.6,1.4v33.7H66V18
	c0-0.5-0.4-1-1-1h-9.2c-1.1,0-1.9-0.9-1.9-1.9V4.8c0-0.5-0.4-1-1-1H18.7c-0.4,0-0.7,0.3-0.7,0.7v63.2l-3,6
	C15,73.9,14.1,73.8,14.1,72.1z M57.8,13.2h5.8l-5.8-6.3L57.8,13.2L57.8,13.2z M59.9,21H24.1c-1.3,0-2.4,1.1-2.4,2.4
	c0,1.3,1.1,2.4,2.4,2.4h35.8c1.3,0,2.4-1.1,2.4-2.4C62.3,22.1,61.2,21,59.9,21z M62.3,37.3c0-1.3-1.1-2.4-2.4-2.4H24.1
	c-1.3,0-2.4,1.1-2.4,2.4c0,1.3,1.1,2.4,2.4,2.4h35.8C61.2,39.7,62.3,38.7,62.3,37.3z M21.7,51.4c0,1.3,1.1,2.4,2.4,2.4h0.9
	c1.5-4.2,5.3-4.8,5.3-4.8h-6.1C22.8,49,21.7,50.1,21.7,51.4z"/>
</svg>
