<?xml version="1.0" encoding="utf-8"?>
<!-- Generator: Adobe Illustrator 17.1.0, SVG Export Plug-In . SVG Version: 6.00 Build 0)  -->
<svg version="1.2" baseProfile="tiny" id="Capa_1" xmlns="http://www.w3.org/2000/svg" xmlns:xlink="http://www.w3.org/1999/xlink"
	 x="0px" y="0px" viewBox="0 0 57 65" xml:space="preserve">
<path id="XMLID_1276_" fill="#FFFFFF" d="M56.9,35.4l-3.5-25.2c-0.2-1.5-1-2.8-2.2-3.6c-1.2-0.8-2.7-1.1-4.2-0.8
	c-1-1.4-2.5-2.4-4.3-2.7c-0.1-0.3-0.2-0.6-0.4-0.9C40.8-0.2,37.4,0,35.9,0c-0.1,0-0.2,0-0.3,0H20.8c-0.1,0-0.2,0-0.3,0
	C19,0,15.5-0.2,14.1,2.2c-0.2,0.3-0.3,0.6-0.4,0.9c-1.7,0.3-3.3,1.3-4.3,2.7C8.1,5.6,6.8,5.9,5.7,6.6c-1.2,0.8-2,2.1-2.2,3.6
	L0.1,35.4c-0.4,3,1.8,6.1,4.8,6.9l1.8,0.5v2c0,1,0.6,2,1.4,2.4v5c0,3.7,3,6.8,6.8,6.8h17.6v2.7c0,1.6,1.3,2.8,2.8,2.8h4.5
	c1.6,0,2.8-1.3,2.8-2.8v-2.7c3.3-0.5,5.8-3.3,5.8-6.7v-5c0.8-0.5,1.4-1.4,1.4-2.4v-1.9c0.1,0,0.2,0,0.3,0l2.1-0.5
	C55.2,41.5,57.4,38.4,56.9,35.4z M8.1,9.7v28.1c-0.7,0.4-1.3,1.2-1.4,2.1l-1.1-0.3c-1.7-0.5-3-2.2-2.8-3.9l3.5-25.2
	c0.1-0.7,0.4-1.3,1-1.6c0.3-0.2,0.6-0.3,0.9-0.4C8.1,8.9,8.1,9.3,8.1,9.7z M33.8,2.8l-2.9,5.5c-0.4,0.7-0.1,1.5,0.6,1.9
	c0.7,0.4,1.5,0.1,1.9-0.6L37,2.8c1.1,0,2.5,0.1,3,0.9c0.2,0.4,0.6,1.6-1.1,4.7l-6.8,12.5L25.5,8.4l-2.9-5.5H33.8z M16.4,3.7
	c0.5-0.7,1.9-0.9,3-0.9L23,9.7l6.9,13.1c-2.2,0-3.2,0-3.8-0.3c-0.7-0.4-1.5-1.5-2.8-3.5l-0.2-0.3L17.5,8.4
	C15.8,5.3,16.2,4.1,16.4,3.7z M26.8,56.2h-12c-2.2,0-4-1.8-4-4v-4.6h15.9C26.8,47.6,26.8,56.2,26.8,56.2z M32.4,56.2h-2.8v-8.6h2.8
	V56.2z M32.4,44.8h-4.2H9.5c0,0,0,0,0,0v-4.5c0,0,0,0,0,0h22.9L32.4,44.8L32.4,44.8z M39.7,61.7C39.7,61.7,39.7,61.7,39.7,61.7
	l-4.5,0c0,0,0,0,0,0v-4.1V38.8c0,0,0,0,0,0h4.5c0,0,0,0,0,0V61.7z M42.2,37.5c-0.5-0.9-1.4-1.5-2.5-1.5h-4.5c-1.1,0-2,0.6-2.5,1.5
	H10.9V9.7c0-0.6,0.1-1.1,0.4-1.6c0.1-0.1,0.2-0.2,0.2-0.4c0.5-0.8,1.3-1.5,2.2-1.8c0.2,1.1,0.7,2.4,1.5,3.8l5.6,10.4
	c0,0,0.1,0.1,0.1,0.1l0.3,0.4c1.7,2.4,2.5,3.6,3.8,4.3c1.3,0.7,2.7,0.7,5.2,0.7c0.6,0,1.2,0,1.9,0c0.5,0,1-0.3,1.2-0.7l8.2-15.1
	C42,8.3,42.5,7.1,42.8,6c1.6,0.5,2.7,2,2.7,3.8v27.7L42.2,37.5L42.2,37.5z M45.5,52.2c0,1.9-1.3,3.4-3,3.9v-8.5h3V52.2z M46.9,44.8
	C46.9,44.8,46.9,44.8,46.9,44.8l-4.4,0v-4.6h4.4c0,0,0,0,0,0V44.8z M51.4,39.7l-1.7,0.4c-0.1-1-0.6-1.8-1.4-2.2V9.7
	c0-0.4,0-0.8-0.1-1.2c0.6,0,1.1,0.1,1.5,0.4c0.5,0.4,0.9,0.9,1,1.6l3.5,25.2C54.4,37.4,53.1,39.2,51.4,39.7z M29.6,29v5.7
	c0,0.8-0.6,1.4-1.4,1.4c-0.8,0-1.4-0.6-1.4-1.4V29c0-0.8,0.6-1.4,1.4-1.4C29,27.6,29.6,28.2,29.6,29z"/>
</svg>
