<?xml version="1.0" encoding="utf-8"?>
<!-- Generator: Adobe Illustrator 17.1.0, SVG Export Plug-In . SVG Version: 6.00 Build 0)  -->
<svg version="1.2" baseProfile="tiny" id="Capa_1" xmlns="http://www.w3.org/2000/svg" xmlns:xlink="http://www.w3.org/1999/xlink"
	 x="0px" y="0px" viewBox="0 0 73 75" xml:space="preserve">
<g>
	<path fill="#FFFFFF" d="M73,8.2C73,3.7,69.3,0,64.8,0H8.2C3.7,0,0,3.7,0,8.2v49.5c0,4.1,3.1,7.5,7,8.1v2.1H1.2
		c-0.7,0-1.2,0.5-1.2,1.2c0,0.7,0.5,1.2,1.2,1.2H7v2H1.2c-0.7,0-1.2,0.5-1.2,1.2s0.5,1.2,1.2,1.2h7h54.7c4.5,0,8.2-3.7,8.2-8.2V54.2
		c0,0,0,0,0,0c1.2-1.4,1.9-3.3,1.9-5.2V8.2z M62.9,72.3H9.4v-6.4h50.9c2.1,0,3.8-1.7,3.8-3.8c0-0.7-0.5-1.2-1.2-1.2
		c-0.7,0-1.2,0.5-1.2,1.2c0,0.8-0.6,1.4-1.4,1.4h-52c-3.2,0-5.8-2.6-5.8-5.8V8.2C2.4,5,5,2.4,8.2,2.4h56.6c3.2,0,5.8,2.6,5.8,5.8
		v40.7c0,3.2-2.6,5.8-5.8,5.8h-54c-2.1,0-3.8,1.7-3.8,3.8c0,0.7,0.5,1.2,1.2,1.2s1.2-0.5,1.2-1.2c0-0.8,0.6-1.4,1.4-1.4h54
		c1.4,0,2.8-0.4,3.9-1v10.3C68.7,69.7,66.1,72.3,62.9,72.3z"/>
	<path fill="#FFFFFF" d="M63.3,17.2c0.7,0,1.3-0.6,1.3-1.3s-0.6-1.3-1.3-1.3S62,15.3,62,16S62.6,17.2,63.3,17.2z"/>
	<path fill="#FFFFFF" d="M16.2,44c0.7,0,1.3-0.6,1.3-1.3s-0.6-1.3-1.3-1.3c-0.7,0-1.3,0.6-1.3,1.3S15.5,44,16.2,44z"/>
	<path fill="#FFFFFF" d="M12.3,39.9c0.7,0,1.3-0.6,1.3-1.3c0-0.7-0.6-1.3-1.3-1.3c-0.7,0-1.3,0.6-1.3,1.3
		C11,39.3,11.6,39.9,12.3,39.9z"/>
</g>
</svg>
