<?xml version="1.0" encoding="utf-8"?>
<!-- Generator: Adobe Illustrator 17.1.0, SVG Export Plug-In . SVG Version: 6.00 Build 0)  -->
<svg version="1.2" baseProfile="tiny" id="Capa_1" xmlns="http://www.w3.org/2000/svg" xmlns:xlink="http://www.w3.org/1999/xlink"
	 x="0px" y="0px" viewBox="0 0 610 375" xml:space="preserve">
<path fill="#FFFFFF" d="M180.7,267.4c-29.7,0-53.7,24.1-53.7,53.7c0,29.7,24.1,53.7,53.7,53.7c29.6,0,53.7-24.1,53.7-53.7
	C234.4,291.5,210.3,267.4,180.7,267.4z M180.7,348c-14.8,0-26.9-12.1-26.9-26.9c0-14.7,12.1-26.8,26.9-26.8
	c14.7,0,26.8,12.1,26.8,26.8C207.5,335.9,195.5,348,180.7,348z M134.4,267.4H14.2c-4.8,0-8.6,3.9-8.6,8.6v26.2
	c0,4.8,3.9,8.6,8.6,8.6h96.4C113.1,293.6,121.8,278.3,134.4,267.4z M461.5,267.4c-29.6,0-53.7,24.1-53.7,53.7
	c0,29.7,24.1,53.7,53.7,53.7c29.7,0,53.7-24.1,53.7-53.7C515.1,291.5,491.1,267.4,461.5,267.4z M461.5,348
	c-14.8,0-26.8-12.1-26.8-26.9c0-14.7,12-26.8,26.8-26.8c14.8,0,26.8,12.1,26.8,26.8C488.3,335.9,476.3,348,461.5,348z M601.4,267.4
	h-21V150.2c0-13.7-4.1-27.2-11.8-38.6l-52.5-77.8c-12.8-19-34.2-30.4-57.2-30.4h-81.4c-9.5,0-17.3,7.7-17.3,17.3v246.7H226.9
	c12.6,11,21.3,26.1,23.8,43.5h140.7c4.9-34.2,34.4-60.7,70-60.7c35.6,0,65.1,26.5,70.1,60.7h69.8c4.8,0,8.6-3.9,8.6-8.6V276
	C610,271.3,606.2,267.4,601.4,267.4z M515.5,127.1H408c-4.7,0-8.6-3.8-8.6-8.6V58.9c0-4.7,3.9-8.6,8.6-8.6h65.5
	c2.8,0,5.5,1.4,7.1,3.6l42,59.7C526.6,119.3,522.5,127.1,515.5,127.1z M319.1,250.1H17.3c-9.5,0-17.3-7.7-17.3-17.3v-77.6
	c0-9.5,7.7-17.3,17.3-17.3h301.9c9.5,0,17.3,7.7,17.3,17.3v77.6C336.4,242.4,328.7,250.1,319.1,250.1z M138,112.1H17.3
	C7.7,112.1,0,104.4,0,94.9V17.3C0,7.7,7.7,0,17.3,0H138c9.5,0,17.3,7.7,17.3,17.3v77.6C155.3,104.4,147.5,112.1,138,112.1z
	 M319.1,112.1H198.4c-9.5,0-17.3-7.7-17.3-17.3V17.3c0-9.5,7.7-17.3,17.3-17.3h120.8c9.5,0,17.3,7.7,17.3,17.3v77.6
	C336.4,104.4,328.7,112.1,319.1,112.1z"/>
</svg>
