<?xml version="1.0" encoding="utf-8"?>
<!-- Generator: Adobe Illustrator 17.1.0, SVG Export Plug-In . SVG Version: 6.00 Build 0)  -->
<svg version="1.2" baseProfile="tiny" id="Capa_1" xmlns="http://www.w3.org/2000/svg" xmlns:xlink="http://www.w3.org/1999/xlink"
	 x="0px" y="0px" viewBox="0 0 608 348" xml:space="preserve">
<path fill="#FFFFFF" d="M608,205.8v55.3c0,13.8-11.2,25-25,25h-26.7c-4.8-33.1-33.4-58.6-67.8-58.6c-34.4,0-62.9,25.5-67.7,58.6
	H193.9c-4.8-33.1-33.4-58.6-67.7-58.6s-62.9,25.5-67.7,58.6H25c-13.8,0-25-11.2-25-25v-55.3H608z M171.9,72.5h-14.2l-5.2,27h13.9
	c9.2,0,16.9-6.3,16.9-16.9C183.2,76.1,179,72.5,171.9,72.5z M540.3,296c0,28.5-23.2,51.8-51.8,51.8c-28.6,0-51.8-23.2-51.8-51.8
	c0-28.6,23.2-51.8,51.8-51.8C517.1,244.1,540.3,267.3,540.3,296z M514.5,296c0-14.3-11.6-25.9-25.9-25.9
	c-14.3,0-25.9,11.6-25.9,25.9c0,14.2,11.6,25.9,25.9,25.9C502.8,321.8,514.5,310.2,514.5,296z M177.9,296
	c0,28.5-23.1,51.8-51.8,51.8S74.4,324.5,74.4,296c0-28.6,23.1-51.8,51.8-51.8S177.9,267.3,177.9,296z M152,296
	c0-14.3-11.6-25.9-25.9-25.9c-14.3,0-25.9,11.6-25.9,25.9c0,14.2,11.6,25.9,25.9,25.9C140.4,321.8,152,310.2,152,296z M608,192H0V25
	C0,11.1,11.2,0,25,0h377.2c13.8,0,25,11.1,25,25v18.6h49.5c8.7,0,17.1,3.5,23.4,9.7l98.1,97c6.2,6.2,9.8,14.7,9.8,23.6V192z
	 M88.6,96.9l4.6-24.4h34l2.6-13.5H80.3l-16.8,86.3h15.6l6.8-34.9h28.7l2.6-13.5L88.6,96.9L88.6,96.9z M179.6,108.9v-0.2
	c13-4.2,19.7-17,19.7-28.8c0-8.9-4.4-15.6-11.7-18.7c-3.5-1.6-7.8-2.2-12.4-2.2h-30.5L128,145.3h15.7l6.2-32.2h15.6l10.9,32.2h16.8
	l-11.5-32C180.4,110.2,179.6,108.9,179.6,108.9z M275.3,59h-51.5l-16.9,86.3h53.6l2.6-13.5h-37.9l4.5-23.2h29l2.7-13.5h-29l4.4-22.6
	h36L275.3,59z M344.9,59h-51.5l-16.9,86.3h53.6l2.6-13.5h-37.9l4.5-23.2h29l2.7-13.5h-29l4.4-22.6h36L344.9,59z M558.1,146.7
	l-76.8-73.3c-0.7-0.7-1.7-1.1-2.7-1.1h-18.1c-2.2,0-3.9,1.7-3.9,3.9v73.3c0,2.2,1.7,3.9,3.9,3.9h94.9
	C558.9,153.4,560.6,149.1,558.1,146.7z"/>
</svg>
