<?xml version="1.0" encoding="utf-8"?>
<!-- Generator: Adobe Illustrator 17.1.0, SVG Export Plug-In . SVG Version: 6.00 Build 0)  -->
<svg version="1.2" baseProfile="tiny" id="Capa_1" xmlns="http://www.w3.org/2000/svg" xmlns:xlink="http://www.w3.org/1999/xlink"
	 x="0px" y="0px" viewBox="0 0 83 100" xml:space="preserve">
<path fill="#FF5FAF" d="M0,3.2v70.2c0,1.1,0.6,2.2,1.6,2.8l37.9,22.8c0.5,0.3,1.1,0.5,1.7,0.5c0.6,0,1.2-0.2,1.7-0.5l38.6-24.2
	c1-0.6,1.5-1.6,1.5-2.8V3.2C83,1.5,81.5,0,79.8,0H3.2C1.5,0,0,1.5,0,3.2z M6.6,6.6h69.9v63.8L41.1,92.4L6.6,71.7V6.6L6.6,6.6z"/>
<path fill="#FF5FAF" d="M38.5,25.7c0-6.8-5.5-12.2-12.2-12.2S14,19,14,25.7S19.4,38,26.2,38S38.5,32.5,38.5,25.7z M20.4,25.7
	c0-3.1,2.5-5.8,5.8-5.8s5.7,2.6,5.7,5.8s-2.5,5.8-5.7,5.8S20.4,28.8,20.4,25.7z"/>
<path fill="#FF5FAF" d="M42.8,60.9c0,6.8,5.5,12.2,12.2,12.2s12.2-5.5,12.2-12.2s-5.6-12.2-12.2-12.2S42.8,54.2,42.8,60.9z
	 M60.8,60.9c0,3.1-2.5,5.8-5.8,5.8c-3.1,0-5.8-2.5-5.8-5.8c0-3.1,2.6-5.7,5.8-5.7C58.3,55.2,60.8,57.8,60.8,60.9z"/>
<path fill="#FF5FAF" d="M60.5,16.8C59.1,15.7,57,16,56,17.4L21.8,62.4c-1.1,1.4-0.8,3.5,0.6,4.6c0.6,0.4,1.3,0.6,1.9,0.6
	c1,0,1.9-0.4,2.6-1.3l34.2-44.9C62.3,19.9,61.9,17.8,60.5,16.8z"/>
</svg>
