<?xml version="1.0" encoding="utf-8"?>
<!-- Generator: Adobe Illustrator 17.1.0, SVG Export Plug-In . SVG Version: 6.00 Build 0)  -->
<svg version="1.2" baseProfile="tiny" id="Capa_1" xmlns="http://www.w3.org/2000/svg" xmlns:xlink="http://www.w3.org/1999/xlink"
	 x="0px" y="0px" viewBox="0 0 66 69" xml:space="preserve">
<path fill="#FFFFFF" d="M62.3,31.4h-6.8h-0.9c-2,0-3.6,1.6-3.6,3.7v0.4c0,2,1.6,3.7,3.7,3.7h6.8h0.9c2,0,3.7-1.6,3.7-3.7l0-0.4
	C66,33.1,64.4,31.4,62.3,31.4z"/>
<path fill="#FFFFFF" d="M62.4,22.3h-1.6V4.6c0-2.5-2.1-4.6-4.6-4.6H25.6C23.1,0,21,2.1,21,4.6v12.7c-6.2,3.5-12.5,7.1-12.5,7.1
	C5,25.8,0,30.4,0,41.2c0,1,0.1,1.9,0.2,2.7c0,0.3,0.1,0.5,0.1,0.7c0.1,0.6,0.2,1.2,0.3,1.8c0,0.2,0.1,0.4,0.1,0.6
	c0.2,0.7,0.4,1.3,0.6,1.9c0.1,0.3,0.2,0.6,0.4,0.8c0.1,0.3,0.3,0.6,0.4,0.8c0.2,0.3,0.3,0.6,0.5,0.9c0,0.1,0.1,0.1,0.1,0.2
	c4.4,6.7,12.7,6.8,12.7,6.8H21v5.3c0,2.5,2.1,4.6,4.6,4.6h30.5c2.5,0,4.6-2.1,4.6-4.6v-6.4h0.7v0h0.9c2,0,3.7-1.6,3.7-3.7l0-0.4
	c0-2-1.6-3.6-3.7-3.6h-0.9h-5.9h-0.9c-2,0-3.6,1.6-3.6,3.7v0.4c0,2,1.6,3.7,3.7,3.7h2.9v2.5H24.2V26.7c1.7-1.1,3.2-2.1,4.1-2.8
	c4.5-3.5,8.7-6.2,9.3-8.7c0.7-3.2-1.7-6-6.1-3.7c-1.4,0.7-4.2,2.3-7.3,4V7.3l33.3,0v15h-2v0h-0.9c-2,0-3.7,1.6-3.7,3.7v0.4
	c0,2,1.6,3.7,3.7,3.7h0.9h5.9h0.9c2,0,3.7-1.6,3.7-3.7V26C66,23.9,64.4,22.3,62.4,22.3z M40.9,61.5c1.3,0,2.3,1,2.3,2.3
	c0,1.3-1,2.3-2.3,2.3c-1.3,0-2.3-1-2.3-2.3C38.6,62.5,39.6,61.5,40.9,61.5z M45.8,4.4H36c-0.3,0-0.6-0.2-0.6-0.6
	c0-0.3,0.3-0.6,0.6-0.6h9.8c0.3,0,0.6,0.2,0.6,0.6C46.3,4.2,46.1,4.4,45.8,4.4z"/>
<path fill="#FFFFFF" d="M62.3,40.6h-0.9h-6.8c-2,0-3.7,1.6-3.7,3.7v0.4c0,2,1.6,3.7,3.7,3.7h0.9h5.9h0.9c2,0,3.7-1.6,3.7-3.7v-0.4
	C66,42.2,64.4,40.6,62.3,40.6z"/>
</svg>
