<?xml version="1.0" encoding="utf-8"?>
<!-- Generator: Adobe Illustrator 17.1.0, SVG Export Plug-In . SVG Version: 6.00 Build 0)  -->
<svg version="1.2" baseProfile="tiny" id="Capa_1" xmlns="http://www.w3.org/2000/svg" xmlns:xlink="http://www.w3.org/1999/xlink"
	 x="0px" y="0px" viewBox="0 0 398 354" xml:space="preserve">
<path fill="#FFFFFF" d="M115.6,205.1c11.2,0,22-0.7,32.2-2.1V90.9c-10.2-1.3-21-2.1-32.2-2.1C51.8,88.8,0,112.3,0,141.3v11.4
	C0,181.6,51.8,205.1,115.6,205.1z"/>
<path fill="#FFFFFF" d="M115.6,263.6c11.2,0,22-0.7,32.2-2.1v-32.9c-10.2,1.3-21,2.1-32.2,2.1c-55.7,0-102.3-17.9-113.2-41.7
	c-1.6,3.5-2.4,7.1-2.4,10.7v11.4C0,240.2,51.8,263.6,115.6,263.6z"/>
<path fill="#FFFFFF" d="M147.9,289.8v-2.6c-10.2,1.3-21,2.1-32.2,2.1c-55.7,0-102.3-17.9-113.2-41.7c-1.6,3.5-2.4,7.1-2.4,10.7v11.4
	c0,29,51.8,52.4,115.6,52.4c12.8,0,25.1-0.9,36.5-2.7c-2.8-5.8-4.3-12-4.3-18.3V289.8z"/>
<path fill="#FFFFFF" d="M282.4,0c-63.9,0-115.6,23.5-115.6,52.4v11.4c0,29,51.8,52.4,115.6,52.4c63.9,0,115.6-23.5,115.6-52.4V52.4
	C398,23.5,346.2,0,282.4,0z"/>
<path fill="#FFFFFF" d="M282.4,142c-55.7,0-102.3-17.9-113.2-41.7c-1.6,3.5-2.4,7.1-2.4,10.7v11.4c0,29,51.8,52.4,115.6,52.4
	c63.9,0,115.6-23.5,115.6-52.4V111c0-3.7-0.8-7.3-2.4-10.7C384.6,124.1,338.1,142,282.4,142z"/>
<path fill="#FFFFFF" d="M282.4,200.5c-55.7,0-102.3-17.9-113.2-41.7c-1.6,3.5-2.4,7.1-2.4,10.7v11.4c0,29,51.8,52.4,115.6,52.4
	c63.9,0,115.6-23.5,115.6-52.4v-11.4c0-3.7-0.8-7.3-2.4-10.7C384.6,182.6,338.1,200.5,282.4,200.5z"/>
<path fill="#FFFFFF" d="M282.4,262.2c-55.7,0-102.3-17.9-113.2-41.7c-1.6,3.5-2.4,7.1-2.4,10.7v11.4c0,29,51.8,52.4,115.6,52.4
	c63.9,0,115.6-23.5,115.6-52.4v-11.4c0-3.7-0.8-7.3-2.4-10.7C384.6,244.3,338.1,262.2,282.4,262.2z"/>
<path fill="#FFFFFF" d="M282.4,320.8c-55.7,0-102.3-17.9-113.2-41.7c-1.6,3.5-2.4,7.1-2.4,10.7v11.4c0,29,51.8,52.4,115.6,52.4
	c63.9,0,115.6-23.5,115.6-52.4v-11.4c0-3.7-0.8-7.3-2.4-10.7C384.6,302.9,338.1,320.8,282.4,320.8z"/>
</svg>
