<?xml version="1.0" encoding="utf-8"?>
<!-- Generator: Adobe Illustrator 17.1.0, SVG Export Plug-In . SVG Version: 6.00 Build 0)  -->
<svg version="1.2" baseProfile="tiny" id="Capa_1" xmlns="http://www.w3.org/2000/svg" xmlns:xlink="http://www.w3.org/1999/xlink"
	 x="0px" y="0px" viewBox="0 0 95 73" xml:space="preserve">
<path fill="#FFFFFF" d="M48,26.4c1.6,0,3.1,0.3,4.4,0.9c0.1-2.2,0.9-4.3,2.1-6c-0.9-0.2-1.8-0.3-2.7-0.3h-8.6
	c-0.9,0-1.8,0.1-2.7,0.3c1.3,1.8,2.1,4,2.1,6.4C44.3,26.9,46.1,26.4,48,26.4z"/>
<circle fill="#FFFFFF" cx="47.6" cy="10.2" r="10.2"/>
<path fill="#FFFFFF" d="M63.6,37.7c5.2,0,9.4-4.2,9.4-9.4c0-5.2-4.2-9.4-9.4-9.4c-5.1,0-9.3,4.1-9.4,9.2c3,1.9,5,5,5.4,8.6
	C60.8,37.4,62.1,37.7,63.6,37.7z"/>
<path fill="#FFFFFF" d="M31.6,19c-5.2,0-9.4,4.2-9.4,9.4s4.2,9.4,9.4,9.4c1.8,0,3.5-0.5,5-1.4c0.5-3,2.1-5.6,4.4-7.4
	c0-0.2,0-0.3,0-0.5C41,23.2,36.8,19,31.6,19z"/>
<path fill="#FFFFFF" d="M69.6,18.8c3,1.9,5,5,5.4,8.6c1.2,0.6,2.5,0.9,4,0.9c5.2,0,9.4-4.2,9.4-9.4S84.2,9.5,79,9.5
	C73.9,9.5,69.7,13.7,69.6,18.8z"/>
<circle fill="#FFFFFF" cx="48" cy="38" r="9.4"/>
<path fill="#FFFFFF" d="M67.5,38.4h-7.9c-0.1,3.2-1.4,6-3.6,8c5.9,1.8,10.2,7.2,10.2,13.7v3c7.8-0.3,12.3-2.5,12.6-2.6l0.6-0.3h0.1
	v-9.7C79.5,43.8,74.2,38.4,67.5,38.4z"/>
<path fill="#FFFFFF" d="M83,28.9h-7.9c-0.1,3.2-1.4,6-3.6,8c5.9,1.8,10.2,7.2,10.2,13.7v3c7.8-0.3,12.3-2.5,12.6-2.6l0.6-0.3H95
	v-9.7C95,34.3,89.6,28.9,83,28.9z"/>
<path fill="#FFFFFF" d="M40,46.4c-2.1-2-3.5-4.9-3.6-8c-0.3,0-0.6,0-0.9,0h-8c-6.6,0-12,5.4-12,12v9.7l0,0.2l0.7,0.2
	c5.1,1.6,9.6,2.3,13.5,2.5v-2.9C29.8,53.6,34.1,48.2,40,46.4z"/>
<path fill="#FFFFFF" d="M52,48h-8c-6.6,0-12,5.4-12,12v9.7l0,0.2l0.7,0.2c6.3,2,11.8,2.6,16.3,2.6c8.8,0,13.9-2.5,14.3-2.7l0.6-0.3
	H64v-9.7C64,53.4,58.6,48,52,48z"/>
<path fill="#FFFFFF" d="M16,28.6c1.4,0,2.8-0.3,4-0.9c0.4-3.6,2.5-6.8,5.4-8.6C25.3,14,21.1,9.8,16,9.8c-5.2,0-9.4,4.2-9.4,9.4
	C6.6,24.4,10.8,28.6,16,28.6z"/>
<path fill="#FFFFFF" d="M23.5,37.3c-2.1-2-3.5-4.9-3.6-8.1H12c-6.6,0-12,5.4-12,12V51h0.1l0.6,0.3c0.3,0.1,4.8,2.4,12.6,2.6v-3
	C13.3,44.5,17.6,39,23.5,37.3z"/>
<path fill="#FFFFFF" d="M27,18c1.1-0.5,2.8-1,4.5-1c1.9,0,3.8,0.5,5.4,1.4c0.4-0.4,0.7-0.8,1-1.2c-1.6-2.1-2.4-4.6-2.4-7.2
	c0-1.8,0.4-3.5,1.1-5.1c-1.7-1.5-3.9-2.4-6.2-2.4c-4.2,0-7.9,2.9-9,6.9C24.6,11.2,26.6,14.5,27,18z"/>
<path fill="#FFFFFF" d="M57.3,16.7c0.3,0.5,0.7,1,1.1,1.5c1.5-0.8,3.2-1.2,4.9-1.2c1.7,0,3.3,0.4,4.3,0.8c0.3-3.9,2.7-7.3,6.2-9.1
	c-1.3-3.7-4.8-6.2-8.7-6.2c-2.6,0-5,1.1-6.7,2.9c0.6,1.5,0.9,3,0.9,4.6C59.4,12.4,58.7,14.8,57.3,16.7z"/>
</svg>
