<?xml version="1.0" encoding="utf-8"?>
<!-- Generator: Adobe Illustrator 17.1.0, SVG Export Plug-In . SVG Version: 6.00 Build 0)  -->
<svg version="1.2" baseProfile="tiny" id="Capa_1" xmlns="http://www.w3.org/2000/svg" xmlns:xlink="http://www.w3.org/1999/xlink"
	 x="0px" y="0px" viewBox="0 0 98 98" xml:space="preserve">
<path fill="#7BEFFF" d="M97.9,77.2c0.2,1.6-0.3,2.9-1.5,4.1L82.6,95.1c-0.6,0.7-1.5,1.3-2.4,1.8c-1,0.5-2,0.8-2.9,1
	c-0.1,0-0.3,0-0.6,0.1c-0.4,0-0.8,0.1-1.4,0.1c-1.3,0-3.4-0.2-6.4-0.7c-2.9-0.5-6.6-1.6-10.8-3.3c-4.2-1.8-9.1-4.4-14.5-7.9
	c-5.4-3.6-11.2-8.4-17.2-14.6c-4.8-4.8-8.8-9.3-12-13.7c-3.1-4.3-5.8-8.4-7.6-12c-2-3.7-3.4-7-4.3-10.1s-1.7-5.6-2-7.7
	S0,24,0.1,22.8c0.1-1.3,0.1-2,0.1-2.1c0.1-1,0.5-2,1-2.9c0.5-1,1.1-1.9,1.8-2.4L16.6,1.5c1-1,2.1-1.5,3.3-1.5c0.9,0,1.7,0.3,2.3,0.8
	s1.3,1.2,1.8,2l11.1,21c0.6,1.1,0.8,2.3,0.5,3.6c-0.3,1.3-0.9,2.4-1.8,3.3l-5.1,5.1c-0.1,0.1-0.3,0.4-0.4,0.7s-0.2,0.6-0.2,0.8
	c0.3,1.5,0.9,3.1,1.9,5c0.8,1.7,2.2,3.7,3.8,6.1c1.8,2.3,4.2,5.1,7.3,8.2c3.1,3.1,5.9,5.7,8.3,7.4c2.4,1.8,4.4,3,6.1,3.9
	c1.7,0.8,2.8,1.4,3.7,1.5l1.3,0.3c0.1,0,0.4-0.1,0.7-0.2c0.3-0.1,0.5-0.2,0.7-0.4l5.9-6c1.3-1.1,2.7-1.7,4.3-1.7
	c1.2,0,2.2,0.2,2.8,0.6h0.1l20,11.8C96.7,74.7,97.6,75.9,97.9,77.2z"/>
</svg>
