<?xml version="1.0" encoding="utf-8"?>
<!-- Generator: Adobe Illustrator 17.1.0, SVG Export Plug-In . SVG Version: 6.00 Build 0)  -->
<svg version="1.2" baseProfile="tiny" id="Layer_1" xmlns="http://www.w3.org/2000/svg" xmlns:xlink="http://www.w3.org/1999/xlink"
	 x="0px" y="0px" viewBox="0 0 73 73" xml:space="preserve">
<g>
	<g>
		<g>
			<path fill="#FFFFFF" d="M40.2,26.8L40.2,26.8c-0.7,0-1.2,0.5-1.2,1.2c0,0.7,0.5,1.2,1.2,1.2c0.7,0,1.2-0.5,1.2-1.2
				C41.4,27.3,40.8,26.8,40.2,26.8z"/>
			<path fill="#FFFFFF" d="M72.3,12.3l-9.7-4.9c-2.4-1.2-4.8-2.4-7.3-2.5l-4.5-4.5c-0.4-0.4-1.1-0.5-1.6-0.1L36.5,10.6L23.9,0.3
				c-0.5-0.4-1.2-0.4-1.6,0.1l-4.5,4.5c-2.5,0.2-5,1.4-7.3,2.5l-9.7,4.9c-0.5,0.3-0.8,0.8-0.6,1.4l4.9,19.5c0.2,0.6,0.8,1,1.4,0.9
				l5.9-1v33.8c0,3.4,2.7,6.1,6.1,6.1h36.5c3.4,0,6.1-2.7,6.1-6.1V33.1l5.9,1c0.6,0.1,1.2-0.3,1.4-0.9L73,13.7
				C73.1,13.1,72.8,12.6,72.3,12.3z M66,31.5l-6.2-1c-0.4-0.1-0.7,0-1,0.3c-0.3,0.2-0.4,0.6-0.4,0.9v35.3c0,2-1.6,3.7-3.7,3.7H18.3
				c-2,0-3.7-1.6-3.7-3.7V31.6c0-0.4-0.2-0.7-0.4-0.9c-0.3-0.2-0.6-0.3-1-0.3l-6.2,1L2.6,14l2.6-1.3l3.8,15.6
				c0.1,0.6,0.6,0.9,1.2,0.9c0.1,0,0.2,0,0.3,0c0.7-0.2,1.1-0.8,0.9-1.5l-4-16.1l4-2c2.4-1.2,4.6-2.3,6.8-2.3c0.2,0,0.3,0,0.5-0.1
				c0.1-0.1,0.3-0.2,0.4-0.3l4.1-4.1l11.5,9.4l-3.1,3.1l-8.9-7.8c-0.5-0.4-1.3-0.4-1.7,0.1c-0.4,0.5-0.4,1.3,0.1,1.7l9.7,8.5
				c0.5,0.4,1.2,0.4,1.7-0.1l2.8-2.8v15.3c0,0.7,0.5,1.2,1.2,1.2c0.7,0,1.2-0.5,1.2-1.2V15.1l2.8,2.8c0.2,0.2,0.5,0.4,0.9,0.4
				c0.3,0,0.6-0.1,0.8-0.3l9.7-8.5C52.4,9,52.5,8.2,52,7.7c-0.4-0.5-1.2-0.6-1.7-0.1l-8.9,7.8l-3.1-3.1l11.5-9.4l4.1,4.1
				c0.1,0.1,0.2,0.2,0.4,0.3c0.1,0.1,0.3,0.1,0.5,0.1c2.1,0,4.4,1.1,6.8,2.3l4,2l-4,16.1c-0.2,0.7,0.2,1.3,0.9,1.5
				c0.1,0,0.2,0,0.3,0c0.5,0,1-0.4,1.2-0.9l3.9-15.6l2.6,1.3L66,31.5z"/>
			<path fill="#FFFFFF" d="M40.2,20.7L40.2,20.7c-0.7,0-1.2,0.5-1.2,1.2c0,0.7,0.5,1.2,1.2,1.2c0.7,0,1.2-0.5,1.2-1.2
				C41.4,21.2,40.8,20.7,40.2,20.7z"/>
		</g>
	</g>
</g>
</svg>
