<?xml version="1.0" encoding="utf-8"?>
<!-- Generator: Adobe Illustrator 17.1.0, SVG Export Plug-In . SVG Version: 6.00 Build 0)  -->
<svg version="1.2" baseProfile="tiny" id="Capa_1" xmlns="http://www.w3.org/2000/svg" xmlns:xlink="http://www.w3.org/1999/xlink"
	 x="0px" y="0px" viewBox="0 0 796 898" xml:space="preserve">
<path fill="#FFFFFF" d="M233.1,293.3c45.4,3.3,82.8,35.1,94.6,77.6c0.8,2.7,3.2,4.7,6.1,4.7h81.8c4.5,0,8.3,3.4,8.7,7.9l36.6,409.1
	c0.4,4.5,4.2,7.9,8.7,7.9h317.7c5.1,0,9.1-4.4,8.7-9.5l-60-670.2c-0.4-4.5-4.2-7.9-8.7-7.9H606.2c-2.5,0-4.6-1.9-4.8-4.5
	C596.5,47.7,545.9,0,484,0c-61.9,0-112.5,47.7-117.4,108.4c-0.2,2.5-2.3,4.5-4.8,4.5H251c-4.5,0-8.3,3.4-8.7,7.9l-14.9,165.8
	C227.1,290,229.7,293,233.1,293.3z M484,20.2c50.4,0,91.9,38.4,97.1,87.5c0.3,2.7-1.8,5.1-4.6,5.1h-185c-2.7,0-4.9-2.4-4.6-5.1
	C392.1,58.6,433.6,20.2,484,20.2z"/>
<path fill="#FFFFFF" d="M12,897.9h424c7.1,0,12.6-6.1,12-13.1l-42.9-479.1c-0.6-6.2-5.8-11-12-11h-81c-3.2,0-5.8-2.4-6.2-5.5
	c-4.6-43.3-41.2-77-85.7-77c-44.5,0-81.1,33.7-85.7,77c-0.3,3.1-3,5.5-6.2,5.5H54.9c-6.2,0-11.4,4.8-12,11L0,884.8
	C-0.6,891.8,5,897.9,12,897.9z M155.1,387.7c5.1-31.4,32.4-55.4,65.2-55.4c32.8,0,60,24,65.2,55.4c0.6,3.6-2.2,7-5.9,7H161
	C157.3,394.7,154.5,391.3,155.1,387.7z"/>
</svg>
