<?xml version="1.0" encoding="utf-8"?>
<!-- Generator: Adobe Illustrator 17.1.0, SVG Export Plug-In . SVG Version: 6.00 Build 0)  -->
<svg version="1.2" baseProfile="tiny" id="Capa_1" xmlns="http://www.w3.org/2000/svg" xmlns:xlink="http://www.w3.org/1999/xlink"
	 x="0px" y="0px" viewBox="0 0 61 56" xml:space="preserve">
<path d="M60.7,34.9c-0.4-0.9-1.3-1.5-2.3-1.6l-6.4-1c-6.6-1.1-12.6-4.1-17.4-8.7C28.2,17.4,19.5,8.9,14.8,3.4
	c-1.1-1.3-1.9-2.3-2.4-3.1C12.3,0.1,12.1,0,11.9,0c-0.2,0-0.4,0-0.6,0.2C7.6,3.5,0.5,11.8,0.2,12.2c-0.3,0.3-0.2,0.8,0.1,1l3.1,2.8
	C2,17,1.1,17.8,1,17.9c-0.3,0.3-0.3,0.7-0.1,1l5.7,7c3.2,3.9,4.8,8.9,4.4,13.9c-0.2,2.1,0.5,4.2,1.9,5.8c1.4,1.6,3.4,2.5,5.5,2.6
	l4,0.2c5,0.2,9.8,1.7,14,4.4c3.1,2,6.6,3,10.1,3c3.1,0,6.3-0.8,9.1-2.3c1.1-0.6,1.7-1.8,1.6-3c-0.1-1.2-0.9-2.3-2.1-2.7l-6.1-2
	c-3.6-1.2-7-3-9.9-5.3c0.5,0.2,1,0.4,1.6,0.6c2.4,1.1,5,1.6,7.5,1.6c2.9,0,5.9-0.7,8.5-2.1c1.1-0.5,2.1-1.2,3-1.9
	C61,37.9,61.3,36.3,60.7,34.9z M11.7,1.8c0.4,0.6,1,1.3,1.6,2C10,7,5.2,12.5,3.7,14.3l-1.9-1.7C3.3,10.8,8.5,4.8,11.7,1.8z M14,9.5
	c0.3,0.7,0.8,1.4,1.3,2.2c-3.7,2.6-9.4,7.3-11.2,8.8l-1.6-2C4.3,17,10.4,12,14,9.5z M14,44.7c-1.2-1.3-1.7-3-1.6-4.7
	c0.1-1.1,0.1-2.2,0-3.3c3.5-0.4,7,1.4,8.7,4.6c0.9,1.8,1.2,3.8,0.7,5.7l-3.3-0.1C16.8,46.8,15.2,46,14,44.7z M54.8,49.2
	c0.6,0.2,1.1,0.7,1.1,1.4s-0.3,1.3-0.8,1.6c-5.6,3.1-12.4,2.8-17.8-0.6c-4.2-2.7-9-4.2-14-4.6c0.4-2.2,0.1-4.4-0.9-6.5
	c-1.9-3.8-6-5.9-10.1-5.4C11.7,31.5,10.2,28,7.8,25L5,21.7c1.8-1.5,7.3-6.1,11-8.7c3.8,6,10.5,15.2,16.1,22.5
	c4.2,5.5,9.9,9.6,16.5,11.8L54.8,49.2z M58.9,37.7c-0.9,0.7-1.8,1.3-2.8,1.8c-4.7,2.4-10.1,2.5-14.9,0.4c-1.5-0.7-3.2-1.2-4.8-1.6
	c-1.2-1.1-2.2-2.3-3.2-3.7c-5.8-7.6-15.9-21.2-18.3-26.5c-0.1-0.2-0.3-0.3-0.5-0.4c-0.2-0.1-0.4,0-0.6,0.1c-2.1,1.3-5.2,3.8-7.8,5.9
	c2.1-2.4,5.6-6.3,8.2-8.8c4.8,5.5,13.1,13.7,19.4,19.7c5,4.8,11.3,8,18.2,9.1l6.4,1c0.7,0.1,1.1,0.6,1.2,0.9
	C59.7,36.2,59.6,37.1,58.9,37.7z"/>
</svg>
