<?xml version="1.0" encoding="utf-8"?>
<!-- Generator: Adobe Illustrator 17.1.0, SVG Export Plug-In . SVG Version: 6.00 Build 0)  -->
<svg version="1.2" baseProfile="tiny" id="Capa_1" xmlns="http://www.w3.org/2000/svg" xmlns:xlink="http://www.w3.org/1999/xlink"
	 x="0px" y="0px" viewBox="0 0 77 81" xml:space="preserve">
<path d="M75.6,73.2c-2.3-0.8-4.2-2.3-5.4-4.3c-0.5-0.8-1-1.7-1.6-2.5c-2.3-3.9-4.8-7.8-7.1-10.1c-5.6-9.6-12.2-33.7-14.1-40.9
	c-0.6-2.1-2.1-3.8-4.2-4.5L11.3,0.1c-0.2-0.1-0.5-0.1-0.7,0s-0.4,0.3-0.5,0.6l-5.9,18c-0.1,0.3-0.1,0.6,0.1,0.8
	c0.2,0.2,0.4,0.4,0.7,0.5l21.9,3.3L12.2,41.7l-1.4-0.4c-1.4-0.4-2.8-0.2-4,0.6C5.8,42.7,5.1,44,5,45.4c-0.1,2.7-0.7,5.4-1.9,7.9
	l-2.7,6.1c-0.8,1.8-0.4,3.9,1,5.2c0.4,0.4,1,0.7,1.6,0.7c0.1,0,0.2,0,0.3,0c0.7-0.1,1.3-0.5,1.6-1.1l2.2-3.7
	c4.8-4,8.8-8.7,11.9-14.1l0.9-1.6c1-1,9.9-9.6,16.2-14c0.8,4.3,3.1,10.2,9,17.3c4.2,5.1,7.8,11.6,8.6,13.1l-1,4.5
	c-0.2,1.1,0,2.2,0.6,3.2c0.6,0.9,1.6,1.6,2.7,1.8l0.7,0.1c2.4,0.4,4.5,1.8,5.8,3.8l1.8,2.8c1.2,1.9,3.3,2.9,5.4,2.9
	c0.7,0,1.4-0.1,2.1-0.4l1.5-0.5c1.7-0.6,3-1.9,3.6-3.6C77.3,74.8,76.7,73.6,75.6,73.2z M11.6,2.2l4.4,1.5l-5.5,15l-4.2-0.6L11.6,2.2
	z M18.4,43.4c-0.1,0.1-0.1,0.1-0.2,0.2l-1,1.7c-3,5.3-6.9,9.9-11.5,13.7c-0.1,0.1-0.2,0.2-0.2,0.3l-2.3,3.9C3.1,63.3,3,63.3,3,63.3
	c-0.1,0-0.2,0-0.2-0.1c-0.8-0.8-1-2-0.6-3l2.7-6.1c1.2-2.7,1.9-5.6,2-8.6c0-0.8,0.4-1.5,1.1-2c0.7-0.5,1.5-0.6,2.2-0.4l2,0.6
	c0.4,0.1,0.8,0,1.1-0.3L29,23.5l6.7,1c-0.1,0.9-0.2,2.2,0,4C29,33.1,18.9,43,18.4,43.4z M75,75.3c-0.4,1.1-1.3,2-2.4,2.4l-1.5,0.5
	c-2,0.7-4.1-0.1-5.3-1.8l-1.8-2.8c-1.6-2.5-4.2-4.2-7.1-4.7l-0.7-0.1c-0.6-0.1-1.1-0.4-1.4-0.9c-0.3-0.5-0.4-1.1-0.3-1.7l1.1-4.9
	c0-0.2,0-0.5-0.1-0.7c-0.2-0.3-4.1-7.9-9-13.8c-5.9-7.1-7.9-13-8.6-16.6c-0.7-3.9-0.1-6.2-0.1-6.2c0.1-0.3,0-0.6-0.1-0.8
	c-0.2-0.2-0.4-0.4-0.7-0.4l-24.5-3.7l5.3-14.7l24.6,8.4c1.4,0.5,2.5,1.7,2.9,3.1C52.9,44,58,54.3,59.8,57.5c0,0.1,0.1,0.2,0.2,0.2
	c2.2,2,4.6,5.9,6.9,9.7c0.5,0.9,1.1,1.7,1.6,2.6c1.5,2.4,3.8,4.2,6.5,5.1C75,75.1,75.1,75.2,75,75.3z"/>
</svg>
