<?xml version="1.0" encoding="utf-8"?>
<!-- Generator: Adobe Illustrator 17.1.0, SVG Export Plug-In . SVG Version: 6.00 Build 0)  -->
<svg version="1.2" baseProfile="tiny" id="Capa_1" xmlns="http://www.w3.org/2000/svg" xmlns:xlink="http://www.w3.org/1999/xlink"
	 x="0px" y="0px" viewBox="0 0 94 100" xml:space="preserve">
<path fill="#FF69ED" d="M61.1,51.4c1.1-0.3,3.6-1.1,4.8-4.5l2.4-7.2l1,0.3c0.5,0.1,0.9-0.1,1.1-0.5l1.3-3.9c0.1-0.5-0.1-0.9-0.5-1.1
	L39.5,23.8c-0.5-0.1-0.9,0.1-1.1,0.5l-1.3,3.9c-0.1,0.5,0.1,0.9,0.5,1.1l1,0.3l-2.5,7.3c-1.2,3.4-0.4,4.6,1.1,6.4l6.4,7.7l-0.7,2.1
	c-2.5,0.5-8.8,1.9-9.7,2.2c-1.1,0.3-3.6,1.1-4.8,4.5L26.3,66l-1-0.3c-0.5-0.1-0.9,0.1-1.1,0.5L22.9,70c-0.1,0.5,0.1,0.9,0.5,1.1
	l31.6,10.8c0.5,0.1,0.9-0.1,1.1-0.5l1.3-3.9c0.1-0.5-0.1-0.9-0.5-1.1l-1-0.3l2.1-6.3c1.2-3.4,0.4-4.6-1.1-6.4l-6.4-7.7l0.7-2.1
	C53.8,53.1,60.2,51.7,61.1,51.4z M47.7,57l7,8.3c0.5,0.6,0.8,1,0.9,1.3c0.1,0.4,0,1.1-0.4,2.1L53,75.1L29.2,67l2.1-6.2
	c0.7-2,1.9-2.3,2.7-2.6c0.7-0.2,6.6-1.5,10.4-2.3c0.5-0.1,1-0.5,1.1-1l1.3-3.8c0.2-0.5,0.1-1.1-0.3-1.5l-6.9-8.3l0,0
	c-0.5-0.6-0.8-1-0.9-1.3c-0.1-0.4,0-1.1,0.4-2.1l2.5-7.3l23.8,8.1l-2.4,7.2c-0.7,2-1.9,2.3-2.7,2.6c-0.7,0.2-6.6,1.5-10.4,2.3
	c-0.5,0.1-1,0.5-1.1,1l-1.3,3.8C47.2,56,47.3,56.6,47.7,57z"/>
<path fill="#FF69ED" d="M66.5,86.6c-0.7,0.4-1.4,0.8-2.1,1.1c-0.1,0.1-0.2,0.1-0.3,0.2c-0.1,0-0.2,0.1-0.4,0.1
	c-3.1,1.4-6.4,2.5-9.7,3.1c0,0-0.1,0-0.1,0c-0.8,0.1-1.6,0.2-2.4,0.4h0c-1.5,0.2-2.9,0.2-4.4,0.2c-17.2,0-31.8-11-37.2-26.3
	c-0.1-0.2-0.2-0.5-0.2-0.7c-1.3-3.9-2-8.1-2-12.4c0-4.4,0.7-8.5,2-12.5c0-0.1,0.1-0.2,0.1-0.2c0.1-0.2,0.2-0.5,0.2-0.7
	c0-0.1,0.1-0.2,0.1-0.3C14.6,26.5,24.9,17.2,37.6,14h0c0.2,0,0.4-0.1,0.6-0.1c0,0,0,0,0.1,0c2.8-0.6,5.6-1,8.6-1l0,4.1
	c0,1.3,0.8,1.6,1.8,0.8l8.6-7.3c1-0.8,0.9-2.1,0-2.9l-8.8-7.2c-1-0.8-1.8-0.4-1.8,0.8l0,4c-12.5,0.1-24.2,4.9-33,13.8
	c-0.9,0.9-1.7,1.8-2.5,2.7c0,0,0,0,0,0c0,0-0.1,0.1-0.1,0.1C4.2,30,0.3,40.2,0,50.9c0,0.1,0,0.2,0,0.2c0,0.4,0,0.7,0,1.1
	c0,0.6,0,1.2,0,1.8c0,0.1,0,0.1,0,0.2C0.5,64.1,3.9,73.4,9.8,81c0,0,0,0.1,0.1,0.1c0.6,0.7,1.2,1.5,1.8,2.2c0,0,0.1,0.1,0.1,0.1
	c0.6,0.7,1.3,1.4,2,2.1c7,7,15.8,11.5,25.3,13.1c0,0,0.1,0,0.1,0c0,0,0,0,0.1,0c2.6,0.4,5.2,0.6,7.8,0.6c6.9,0,13.6-1.5,19.8-4.4
	c0.1-0.1,0.3-0.1,0.4-0.2c0.1,0,0.3-0.1,0.4-0.2c0.8-0.4,1.7-0.9,2.5-1.3c1.8-1,2.5-3.3,1.4-5.2C70.6,86.2,68.3,85.6,66.5,86.6z"/>
<path fill="#FF69ED" d="M79.8,30.3c0.7,1.1,1.9,1.7,3.1,1.7c0.7,0,1.5-0.2,2.1-0.6c1.7-1.2,2.2-3.5,1-5.2c-0.5-0.8-1.1-1.6-1.7-2.3
	c-1.3-1.6-3.6-2-5.3-0.7c-1.6,1.3-2,3.6-0.7,5.3C78.9,29,79.3,29.6,79.8,30.3z"/>
<path fill="#FF69ED" d="M84.6,40.2c0.2,0.8,0.5,1.5,0.7,2.3c0.4,1.7,2,2.8,3.7,2.8c0.3,0,0.6,0,0.9-0.1c2-0.5,3.2-2.6,2.7-4.6
	c-0.2-0.9-0.5-1.9-0.8-2.7c-0.6-2-2.8-3.1-4.7-2.5C85,36.1,83.9,38.2,84.6,40.2z"/>
<path fill="#FF69ED" d="M82.2,77.8c-1.6-1.4-4-1.2-5.3,0.4c-0.5,0.6-1.1,1.2-1.6,1.8c-1.5,1.5-1.4,3.9,0.1,5.3
	c0.7,0.7,1.7,1.1,2.6,1.1c1,0,2-0.4,2.7-1.1c0.7-0.7,1.3-1.4,1.9-2.1C83.9,81.5,83.8,79.1,82.2,77.8z"/>
<path fill="#FF69ED" d="M90.3,49.9c-2.1-0.1-3.8,1.6-3.9,3.7c0,0.8-0.1,1.6-0.1,2.4c-0.2,2.1,1.3,3.9,3.4,4.1c0.1,0,0.2,0,0.4,0
	c1.9,0,3.6-1.5,3.8-3.4c0.1-0.9,0.1-1.9,0.2-2.9C94.1,51.7,92.4,49.9,90.3,49.9z"/>
<path fill="#FF69ED" d="M88.7,64.5c-1.9-0.8-4.1,0.2-4.9,2.1c-0.3,0.7-0.6,1.5-0.9,2.2c-0.9,1.9-0.1,4.1,1.8,5
	c0.5,0.2,1.1,0.4,1.6,0.4c1.4,0,2.8-0.8,3.4-2.2c0.4-0.9,0.8-1.8,1.1-2.6C91.6,67.5,90.6,65.3,88.7,64.5z"/>
<path fill="#FF69ED" d="M75.8,19.8c1.2-1.7,0.9-4-0.8-5.3c-0.8-0.6-1.5-1.1-2.4-1.6c-1.8-1.1-4.1-0.6-5.2,1.1
	c-1.1,1.8-0.6,4.1,1.1,5.2c0.7,0.4,1.3,0.9,2,1.4c0.7,0.5,1.5,0.7,2.2,0.7C73.9,21.4,75.1,20.8,75.8,19.8z"/>
</svg>
