<?xml version="1.0" encoding="utf-8"?>
<!-- Generator: Adobe Illustrator 17.1.0, SVG Export Plug-In . SVG Version: 6.00 Build 0)  -->
<svg version="1.2" baseProfile="tiny" id="Capa_1" xmlns="http://www.w3.org/2000/svg" xmlns:xlink="http://www.w3.org/1999/xlink"
	 x="0px" y="0px" viewBox="0 0 72 61" xml:space="preserve">
<g>
	<g>
		<path fill="#FFFFFF" d="M26.6,45c-1.2-0.5-2.4-0.3-3.4,0.3c-0.8-1-1.9-1.6-3.1-1.5c-1.7,0-3.3,1.2-3.9,3c-0.5,1.3-1,4.9,4.5,9.4
			c0.2,0.2,0.4,0.2,0.7,0.2l0,0l0,0c0.1,0,0.2,0,0.3-0.1c6.7-2.2,7.5-5.7,7.5-7.2C29.3,47.3,28.3,45.6,26.6,45z M21.6,54
			c-2.7-2.3-4-4.8-3.3-6.6c0.4-1,1.2-1.5,1.9-1.5c0.8,0,1.4,0.5,1.7,1.4l0,0c0.1,0.2,0.2,0.3,0.3,0.4c0.5,0.4,1.2,0.4,1.6-0.1
			c0.7-0.7,1.4-1,2.1-0.7c0.6,0.3,1.3,1,1.2,2.1C27,51,25,52.8,21.6,54z"/>
		<path fill="#FFFFFF" d="M27,13.4c-1.1-0.5-2.3-0.5-3.5,0.1c-0.7-1-1.8-1.7-3-1.7c-1.7-0.1-3.4,1-4.1,2.7c-0.6,1.3-1.3,4.9,3.9,9.6
			c0.2,0.2,0.5,0.3,0.7,0.3l0,0l0,0c0.1,0,0.2,0,0.3,0c6.8-1.8,7.9-5.2,8-6.6C29.5,15.9,28.6,14.2,27,13.4z M27.2,17.6
			c-0.2,1.9-2.3,3.6-5.8,4.6c-2.6-2.5-3.6-5-2.9-6.8c0.4-1,1.3-1.4,2-1.4c0.8,0,1.3,0.6,1.6,1.5l0,0c0.1,0.2,0.1,0.3,0.3,0.5
			c0.4,0.4,1.1,0.4,1.6,0c0.7-0.7,1.5-0.9,2.2-0.6C26.7,15.7,27.3,16.5,27.2,17.6z"/>
		<path fill="#FFFFFF" d="M55.8,46.7c-0.6-1.7-2.2-2.9-3.9-3c-1.2,0-2.3,0.5-3.1,1.5c-1.1-0.7-2.3-0.8-3.4-0.3
			c-1.6,0.6-2.7,2.3-2.6,4.2c0,1.4,0.9,5,7.5,7.2c0.1,0,0.2,0.1,0.3,0.1l0,0c0.2,0,0.5-0.1,0.7-0.2C56.8,51.7,56.3,48.1,55.8,46.7z
			 M50.4,54c-3.4-1.2-5.4-3-5.5-4.9c0-1.1,0.6-1.8,1.2-2.1c0.7-0.3,1.4,0,2.1,0.7c0.1,0.1,0.3,0.3,0.5,0.3c0.6,0.2,1.2-0.1,1.4-0.6
			c0.3-0.9,1-1.4,1.7-1.4c0,0,0,0,0,0c0.7,0,1.5,0.5,1.9,1.5C54.4,49.3,53.1,51.7,50.4,54z"/>
		<path fill="#FFFFFF" d="M55.5,14.5c-0.7-1.7-2.4-2.8-4.1-2.7c-1.2,0.1-2.3,0.7-3,1.7c-1.1-0.6-2.3-0.6-3.5-0.1
			c-1.6,0.7-2.5,2.5-2.3,4.3c0.1,1.4,1.2,4.9,8,6.6c0.1,0,0.2,0,0.3,0l0,0c0.3,0,0.5-0.1,0.7-0.3C56.8,19.4,56.1,15.8,55.5,14.5z
			 M50.6,22.1c-3.4-1-5.6-2.7-5.8-4.6c-0.1-1.1,0.5-1.8,1.1-2.1c0.7-0.3,1.4-0.1,2.1,0.5c0.1,0.1,0.3,0.2,0.5,0.3
			c0.6,0.2,1.2-0.1,1.4-0.7c0.3-0.9,0.9-1.5,1.6-1.5c0.7,0,1.6,0.4,2,1.4C54.2,17.1,53.2,19.6,50.6,22.1z"/>
		<path fill="#FFFFFF" d="M65.8,8.1v-7c0-0.6-0.5-1.1-1.1-1.1c0,0-9.2,1.1-28.7,1.1C16.5,1.1,7.3,0,7.3,0C6.7,0,6.2,0.5,6.2,1.1v7
			C0.1,23.6,0,57.9,0,59.3c0,0.6,0.5,1.1,1.1,1.1h29.1c0.5,0,0.9-0.3,1-0.8L36,44.7l4.7,14.9c0.1,0.5,0.6,0.8,1,0.8h29.1
			c0.6,0,1.1-0.5,1.1-1.1C72,57.9,71.9,23.6,65.8,8.1z M60.4,58.2c-0.6-1.4-0.6-2.7,0.1-3.6c0.5-0.6,1.2-1,1.9-0.8
			c0.7,0.1,1.2,0.7,1.4,1.5l0,0c0,0.2,0.1,0.3,0.3,0.5c0.4,0.4,1.1,0.5,1.6,0c0.8-0.8,1.8-0.9,2.5-0.3c0.6,0.5,1,1.5,0.5,2.7
			L60.4,58.2L60.4,58.2z M65.1,12.8c-0.8,0.5-1.8,1-2.9,1.4c-1.7-1.4-2.8-2.9-3.3-4.3c2.5-0.2,4.2-0.3,5.2-0.4
			C64.4,10.5,64.7,11.6,65.1,12.8z M8.4,2.3C11.5,2.6,20.4,3.3,36,3.3s24.5-0.7,27.6-0.9v5c-2.8,0.3-11.7,1-27.6,1
			c-15.9,0-24.8-0.7-27.6-1C8.4,7.4,8.4,2.3,8.4,2.3z M38.9,10.5v21.1c0,1.6-1.3,2.9-2.9,2.9c-1.6,0-2.9-1.3-2.9-2.9V10.5
			c0.9,0,1.9,0,2.9,0C37,10.5,37.9,10.5,38.9,10.5z M8,9.5c0.9,0.1,2.6,0.2,5.2,0.4c-0.5,1.4-1.6,2.8-3.3,4.3
			c-1.1-0.4-2.1-0.9-2.9-1.4C7.3,11.6,7.6,10.5,8,9.5z M11.6,58.2H3.4c-0.5-1.1-0.1-2.2,0.5-2.7c0.7-0.6,1.6-0.5,2.5,0.3l0,0
			c0.1,0.1,0.3,0.2,0.5,0.3c0.6,0.2,1.2-0.2,1.4-0.8c0.2-0.9,0.7-1.4,1.4-1.5c0.7-0.1,1.4,0.2,1.9,0.8
			C12.2,55.5,12.2,56.8,11.6,58.2z M37,40.7L37,40.7c-0.1-0.3-0.4-0.6-0.7-0.7c-0.6-0.2-1.2,0.1-1.4,0.7l-5.5,17.5H14
			c0.5-1.9,0.3-3.6-0.7-4.9c-1-1.3-2.6-2-4.1-1.7c-1.1,0.2-1.9,0.8-2.5,1.8c-1.6-0.8-3.1-0.4-4.2,0.5C2.4,53.9,2.4,54,2.3,54
			c0.1-2.6,0.2-6,0.4-9.8c0.9,1.5,2.7,3.1,6.2,4.5c0.1,0.1,0.3,0.1,0.4,0.1l0,0l0,0c0.2,0,0.4-0.1,0.6-0.2c5.7-4.1,5.5-7.7,5.1-9.1
			c-0.5-1.8-2-3.1-3.7-3.2c-1.2-0.1-2.4,0.4-3.2,1.3c-1-0.7-2.2-0.9-3.4-0.6c-0.6,0.2-1.1,0.5-1.5,0.9c0.2-3.1,0.5-6.3,0.9-9.4
			C4.6,29.7,5.6,31,7,32.4c0.2,0.2,0.5,0.3,0.8,0.3v0c0.1,0,0.2,0,0.2,0c6.9-1.5,8.1-4.9,8.2-6.3c0.2-1.8-0.6-3.6-2.2-4.4
			c-1.1-0.6-2.3-0.6-3.5,0c-0.7-1.1-1.7-1.7-2.9-1.9c-0.9-0.1-1.8,0.1-2.5,0.6c0.3-2,0.7-3.9,1.2-5.7c1,0.6,2.1,1.1,3.4,1.5
			c0.1,0,0.2,0.1,0.4,0.1l0,0l0,0c0.2,0,0.5-0.1,0.7-0.2c3.1-2.4,4.3-4.6,4.7-6.3c3.8,0.2,8.9,0.4,15.5,0.4v19.6
			c-0.8-1.1-2.1-1.8-3.4-1.7c-1.2,0-2.3,0.6-3,1.7c-1.1-0.6-2.3-0.7-3.5-0.2c-1.6,0.7-2.6,2.4-2.4,4.3c0.1,1.4,1.1,4.9,7.8,6.8
			c0.1,0,0.2,0,0.3,0l0,0l0,0c0.3,0,0.5-0.1,0.7-0.3c2.8-2.5,4-4.7,4.3-6.4c0.9,1.4,2.5,2.4,4.3,2.4c1.8,0,3.4-0.9,4.3-2.4
			c0.4,1.7,1.5,3.9,4.3,6.4c0.2,0.2,0.5,0.3,0.7,0.3l0,0l0,0c0.1,0,0.2,0,0.3,0c6.8-1.9,7.7-5.4,7.8-6.8c0.1-1.8-0.9-3.6-2.4-4.3
			c-1.1-0.5-2.4-0.4-3.5,0.2c-0.7-1-1.8-1.6-3-1.7c-1.3,0-2.6,0.6-3.4,1.7V10.5c6.6-0.1,11.7-0.2,15.5-0.4c0.4,1.6,1.6,3.8,4.7,6.3
			c0.2,0.2,0.4,0.2,0.7,0.2l0,0l0,0c0.1,0,0.2,0,0.4-0.1c1.3-0.4,2.4-0.9,3.4-1.5c0.4,1.8,0.8,3.7,1.2,5.7c-0.7-0.5-1.6-0.7-2.5-0.6
			c-1.2,0.1-2.3,0.8-2.9,1.9c-1.1-0.5-2.4-0.6-3.5,0c-1.5,0.8-2.4,2.6-2.2,4.4c0.2,1.4,1.4,4.8,8.2,6.3c0.1,0,0.2,0,0.2,0v0
			c0.3,0,0.6-0.1,0.8-0.3c1.4-1.4,2.3-2.7,2.9-3.8c0.4,3.2,0.7,6.4,0.9,9.5c-0.4-0.4-1-0.8-1.6-1c-1.2-0.4-2.4-0.2-3.4,0.6
			c-0.8-0.9-2-1.4-3.2-1.3c-1.7,0.1-3.2,1.4-3.7,3.2c-0.4,1.4-0.6,5,5.1,9.1c0.2,0.1,0.4,0.2,0.6,0.2l0,0c0.1,0,0.3,0,0.4-0.1
			c3.5-1.4,5.3-3,6.2-4.5c0.2,3.8,0.3,7.2,0.4,9.8c-0.1-0.1-0.1-0.1-0.2-0.2c-1-0.9-2.6-1.2-4.2-0.5c-0.6-0.9-1.5-1.6-2.5-1.8
			c-1.5-0.3-3.1,0.4-4.1,1.7c-1,1.3-1.2,3.1-0.7,4.9H42.6L37,40.7z M4,41.1c0-1.1,0.7-1.8,1.4-2c0.7-0.2,1.5,0.1,2.1,0.8l0,0
			c0.1,0.1,0.2,0.2,0.4,0.3c0.6,0.3,1.2,0,1.5-0.5c0.4-0.9,1.1-1.4,1.8-1.3c0.7,0.1,1.5,0.6,1.8,1.6c0.5,1.8-0.9,4.2-3.7,6.3
			C5.8,45,3.9,43,4,41.1z M5.5,23.5c0.5-1,1.3-1.3,2-1.3c0.8,0.1,1.3,0.6,1.6,1.6l0,0c0,0.2,0.1,0.3,0.2,0.5
			c0.4,0.4,1.1,0.5,1.6,0.1c0.7-0.7,1.5-0.8,2.2-0.5c0.6,0.3,1.2,1.1,1,2.2c-0.3,1.9-2.5,3.5-5.9,4.3C5.6,27.8,4.7,25.3,5.5,23.5z
			 M26.4,38.6c-3.4-1.1-5.5-2.8-5.7-4.7c-0.1-1.1,0.5-1.8,1.1-2.1c0.7-0.3,1.5-0.1,2.1,0.6l0,0c0.1,0.1,0.3,0.2,0.4,0.3
			c0.6,0.2,1.2-0.1,1.4-0.7c0.3-0.9,0.9-1.5,1.7-1.5c0.7,0,1.5,0.4,1.9,1.4C30.2,33.7,29,36.2,26.4,38.6z M42.5,32
			c0.4-1,1.3-1.4,1.9-1.4c0.8,0,1.4,0.5,1.7,1.5l0,0c0.1,0.2,0.1,0.3,0.3,0.4c0.4,0.4,1.1,0.4,1.6,0c0.7-0.7,1.4-0.9,2.1-0.6
			c0.6,0.3,1.2,1,1.1,2.1c-0.1,1.9-2.2,3.6-5.7,4.7C43,36.2,41.8,33.7,42.5,32z M63.9,30.4c-3.5-0.9-5.7-2.5-5.9-4.3
			c-0.1-1.1,0.4-1.9,1-2.2c0.7-0.4,1.4-0.2,2.2,0.5l0,0c0.1,0.1,0.3,0.2,0.5,0.3c0.6,0.2,1.2-0.2,1.3-0.8c0.3-1,0.8-1.5,1.6-1.6
			c0.7-0.1,1.6,0.3,2,1.3C67.3,25.3,66.3,27.8,63.9,30.4z M68,41.1c0.1,1.9-1.8,3.8-5.1,5.3c-2.9-2.2-4.3-4.5-3.7-6.3
			c0.3-1,1.1-1.5,1.8-1.6c0.7-0.1,1.4,0.4,1.8,1.3c0.1,0.2,0.2,0.3,0.3,0.5c0.5,0.4,1.2,0.3,1.5-0.2c0.6-0.8,1.3-1.1,2.1-0.8
			C67.3,39.4,68,40.1,68,41.1z"/>
	</g>
</g>
</svg>
